<svg height="512" viewBox="0 0 64 64" width="512" xmlns="http://www.w3.org/2000/svg" xmlns:xlink="http://www.w3.org/1999/xlink"><linearGradient id="New_Gradient_Swatch_3" gradientUnits="userSpaceOnUse" x1="7" x2="7" y1="59.207" y2="1.744"><stop offset="0" stop-color="#006df0"/><stop offset="1" stop-color="#00e7f0"/></linearGradient><linearGradient id="New_Gradient_Swatch_3-2" x1="11" x2="11" xlink:href="#New_Gradient_Swatch_3" y1="59.207" y2="1.744"/><linearGradient id="New_Gradient_Swatch_3-3" x1="15" x2="15" xlink:href="#New_Gradient_Swatch_3" y1="59.207" y2="1.744"/><linearGradient id="New_Gradient_Swatch_3-4" x1="32" x2="32" xlink:href="#New_Gradient_Swatch_3" y1="59.207" y2="1.744"/><linearGradient id="New_Gradient_Swatch_3-6" x1="19" x2="19" xlink:href="#New_Gradient_Swatch_3" y1="59.207" y2="1.744"/><linearGradient id="New_Gradient_Swatch_3-7" x1="23" x2="23" xlink:href="#New_Gradient_Swatch_3" y1="59.207" y2="1.744"/><linearGradient id="New_Gradient_Swatch_3-8" x1="28" x2="28" xlink:href="#New_Gradient_Swatch_3" y1="59.207" y2="1.744"/><linearGradient id="New_Gradient_Swatch_3-11" x1="43" x2="43" xlink:href="#New_Gradient_Swatch_3" y1="59.207" y2="1.744"/><linearGradient id="New_Gradient_Swatch_3-14" x1="13" x2="13" xlink:href="#New_Gradient_Swatch_3" y1="59.207" y2="1.744"/><linearGradient id="New_Gradient_Swatch_3-16" x1="10" x2="10" xlink:href="#New_Gradient_Swatch_3" y1="59.207" y2="1.744"/><linearGradient id="New_Gradient_Swatch_3-17" x1="46" x2="46" xlink:href="#New_Gradient_Swatch_3" y1="59.207" y2="1.744"/><linearGradient id="New_Gradient_Swatch_3-19" gradientTransform="matrix(.707 .707 -.707 .707 33.657 -2.811)" x1="20.222" x2="20.222" xlink:href="#New_Gradient_Swatch_3" y1="59.207" y2="1.744"/><linearGradient id="New_Gradient_Swatch_3-20" x1="17" x2="17" xlink:href="#New_Gradient_Swatch_3" y1="59.207" y2="1.744"/><linearGradient id="New_Gradient_Swatch_3-21" gradientTransform="matrix(.707 .707 -.707 .707 44.657 1.745)" x1="20.222" x2="20.222" xlink:href="#New_Gradient_Swatch_3" y1="59.207" y2="1.744"/><linearGradient id="New_Gradient_Swatch_3-23" gradientTransform="matrix(.707 .707 -.707 .707 49.213 -9.255)" x1="35.778" x2="35.778" xlink:href="#New_Gradient_Swatch_3" y1="59.207" y2="1.744"/><linearGradient id="New_Gradient_Swatch_3-24" x1="39" x2="39" xlink:href="#New_Gradient_Swatch_3" y1="59.207" y2="1.744"/><linearGradient id="New_Gradient_Swatch_3-25" gradientTransform="matrix(.707 .707 -.707 .707 38.213 -13.811)" x1="35.778" x2="35.778" xlink:href="#New_Gradient_Swatch_3" y1="59.207" y2="1.744"/><g id="Setting_data" data-name="Setting data"><path d="m6 17h2v2h-2z" fill="url(#New_Gradient_Swatch_3)"/><path d="m10 17h2v2h-2z" fill="url(#New_Gradient_Swatch_3-2)"/><path d="m14 17h2v2h-2z" fill="url(#New_Gradient_Swatch_3-3)"/><path d="m59 2h-46a3 3 0 0 0 -3 3v9h-5a3 3 0 0 0 -3 3v36a3 3 0 0 0 3 3h8v-2h-8a1 1 0 0 1 -1-1v-31h48v31a1 1 0 0 1 -1 1h-8v2h8a3 3 0 0 0 3-3v-9h5a3 3 0 0 0 3-3v-36a3 3 0 0 0 -3-3zm-55 18v-3a1 1 0 0 1 1-1h46a1 1 0 0 1 1 1v3zm56 21a1 1 0 0 1 -1 1h-5v-25a3 3 0 0 0 -3-3h-39v-4h48zm-48-33v-3a1 1 0 0 1 1-1h46a1 1 0 0 1 1 1v3z" fill="url(#New_Gradient_Swatch_3-4)"/><path d="m14 5h2v2h-2z" fill="url(#New_Gradient_Swatch_3-3)"/><path d="m18 5h2v2h-2z" fill="url(#New_Gradient_Swatch_3-6)"/><path d="m22 5h2v2h-2z" fill="url(#New_Gradient_Swatch_3-7)"/><g fill="url(#New_Gradient_Swatch_3-8)"><path d="m43 44a1 1 0 0 0 -1-1h-3.753c-.057-.144-.114-.283-.174-.419l2.654-2.654a1 1 0 0 0 0-1.414l-4.24-4.24a1 1 0 0 0 -1.414 0l-2.654 2.654c-.136-.059-.275-.117-.419-.174v-3.753a1 1 0 0 0 -1-1h-6a1 1 0 0 0 -1 1v3.753c-.144.057-.283.115-.419.174l-2.654-2.654a1.029 1.029 0 0 0 -1.414 0l-4.24 4.24a1 1 0 0 0 0 1.414l2.654 2.654c-.06.136-.117.275-.174.419h-3.753a1 1 0 0 0 -1 1v6a1 1 0 0 0 1 1h3.753c.057.144.114.283.174.418l-2.654 2.655a1 1 0 0 0 0 1.414l4.24 4.24a1 1 0 0 0 1.414 0l2.654-2.654c.136.059.275.117.419.174v3.753a1 1 0 0 0 1 1h6a1 1 0 0 0 1-1v-3.753c.144-.057.283-.115.419-.174l2.654 2.654a1.029 1.029 0 0 0 1.414 0l4.24-4.24a1 1 0 0 0 0-1.414l-2.654-2.655c.06-.135.117-.274.174-.418h3.753a1 1 0 0 0 1-1zm-2 5h-3.46a1 1 0 0 0 -.952.694 8.225 8.225 0 0 1 -.605 1.446 1 1 0 0 0 .17 1.187l2.447 2.453-2.82 2.826-2.453-2.453a1 1 0 0 0 -1.188-.17 8.112 8.112 0 0 1 -1.446.605 1 1 0 0 0 -.693.952v3.46h-4v-3.46a1 1 0 0 0 -.693-.952 8.112 8.112 0 0 1 -1.446-.605 1 1 0 0 0 -1.188.17l-2.453 2.453-2.82-2.826 2.452-2.453a1 1 0 0 0 .17-1.187 8.225 8.225 0 0 1 -.605-1.446 1 1 0 0 0 -.957-.694h-3.46v-4h3.46a1 1 0 0 0 .952-.694 8.225 8.225 0 0 1 .605-1.446 1 1 0 0 0 -.17-1.187l-2.447-2.453 2.825-2.826 2.453 2.453a1 1 0 0 0 1.188.17 8.112 8.112 0 0 1 1.446-.605 1 1 0 0 0 .688-.952v-3.46h4v3.46a1 1 0 0 0 .693.952 8.112 8.112 0 0 1 1.446.605 1 1 0 0 0 1.188-.17l2.453-2.453 2.82 2.826-2.452 2.453a1 1 0 0 0 -.17 1.187 8.225 8.225 0 0 1 .605 1.446 1 1 0 0 0 .957.694h3.46z"/><path d="m28 42a5 5 0 1 0 5 5 5.006 5.006 0 0 0 -5-5zm0 8a3 3 0 1 1 3-3 3 3 0 0 1 -3 3z"/><path d="m16 24h24v2h-24z"/></g><path d="m42 24h2v2h-2z" fill="url(#New_Gradient_Swatch_3-11)"/><path d="m16 28h24v2h-24z" fill="url(#New_Gradient_Swatch_3-8)"/><path d="m42 28h2v2h-2z" fill="url(#New_Gradient_Swatch_3-11)"/><path d="m12 24h2v2h-2z" fill="url(#New_Gradient_Swatch_3-14)"/><path d="m12 28h2v2h-2z" fill="url(#New_Gradient_Swatch_3-14)"/><path d="m14 36v-2h-8v18h5v-2h-3v-14z" fill="url(#New_Gradient_Swatch_3-16)"/><path d="m42 36h6v14h-3v2h5v-18h-8z" fill="url(#New_Gradient_Swatch_3-17)"/><path d="m27 35h2v2h-2z" fill="url(#New_Gradient_Swatch_3-8)"/><path d="m19.222 38.222h2v2h-2z" fill="url(#New_Gradient_Swatch_3-19)" transform="matrix(.707 -.707 .707 .707 -21.811 25.787)"/><path d="m16 46h2v2h-2z" fill="url(#New_Gradient_Swatch_3-20)"/><path d="m19.222 53.778h2v2h-2z" fill="url(#New_Gradient_Swatch_3-21)" transform="matrix(.707 -.707 .707 .707 -32.811 30.343)"/><path d="m27 57h2v2h-2z" fill="url(#New_Gradient_Swatch_3-8)"/><path d="m34.778 53.778h2v2h-2z" fill="url(#New_Gradient_Swatch_3-23)" transform="matrix(.707 -.707 .707 .707 -28.255 41.343)"/><path d="m38 46h2v2h-2z" fill="url(#New_Gradient_Swatch_3-24)"/><path d="m34.778 38.222h2v2h-2z" fill="url(#New_Gradient_Swatch_3-25)" transform="matrix(.707 -.707 .707 .707 -17.255 36.787)"/></g></svg>